<?xml version="1.0" encoding="UTF-8" standalone="no"?>
<svg
   xmlns:dc="http://purl.org/dc/elements/1.1/"
   xmlns:cc="http://creativecommons.org/ns#"
   xmlns:rdf="http://www.w3.org/1999/02/22-rdf-syntax-ns#"
   xmlns:svg="http://www.w3.org/2000/svg"
   xmlns="http://www.w3.org/2000/svg"
   xmlns:sodipodi="http://sodipodi.sourceforge.net/DTD/sodipodi-0.dtd"
   xmlns:inkscape="http://www.inkscape.org/namespaces/inkscape"
   width="600"
   height="600"
   viewBox="0 0 600.00001 600.00001"
   version="1.1"
   id="svg8"
   sodipodi:docname="hotello.svg"
   inkscape:export-filename="/home/mysza/kod/gfx/hotello.png"
   inkscape:export-xdpi="96"
   inkscape:export-ydpi="96"
   inkscape:version="1.0.2 (e86c870879, 2021-01-15)">
  <defs
     id="defs2">
    <rect
       x="100"
       y="140"
       width="1172.4464"
       height="1216.5513"
       id="rect14" />
    <rect
       x="100"
       y="140"
       width="1172.4464"
       height="1216.5513"
       id="rect2828" />
  </defs>
  <sodipodi:namedview
     id="base"
     pagecolor="#ffffff"
     bordercolor="#666666"
     borderopacity="1.0"
     inkscape:pageopacity="0.0"
     inkscape:pageshadow="2"
     inkscape:zoom="1"
     inkscape:cx="351.45973"
     inkscape:cy="128.94867"
     inkscape:document-units="px"
     inkscape:current-layer="layer2"
     inkscape:document-rotation="0"
     showgrid="true"
     units="px"
     scale-x="1"
     inkscape:window-width="2560"
     inkscape:window-height="1367"
     inkscape:window-x="0"
     inkscape:window-y="0"
     inkscape:window-maximized="1">
    <inkscape:grid
       type="xygrid"
       id="grid10"
       spacingx="10"
       spacingy="10"
       empspacing="10" />
  </sodipodi:namedview>
  <metadata
     id="metadata5">
    <rdf:RDF>
      <cc:Work
         rdf:about="">
        <dc:format>image/svg+xml</dc:format>
        <dc:type
           rdf:resource="http://purl.org/dc/dcmitype/StillImage" />
        <dc:title></dc:title>
      </cc:Work>
    </rdf:RDF>
  </metadata>
  <g
     inkscape:label="Layer 1"
     inkscape:groupmode="layer"
     id="layer1"
     style="display:inline">
    <g
       aria-label="H"
       transform="translate(11.8,8.5552124)"
       id="text12"
       style="font-style:normal;font-weight:normal;font-size:400px;line-height:1.25;font-family:sans-serif;white-space:pre;shape-inside:url(#rect14);fill:#119da4;fill-opacity:1;stroke:none;stroke-opacity:1">
      <path
         d="m 256.8,365.10625 c 2.4,-7.6 3.6,-12.8 4.4,-14.8 2.4,-9.6 4.8,-18.8 7.2,-28 2.4,-9.6 4.8,-19.2 7.6,-28.8 0.4,-1.6 1.6,-7.2 3.2,-14.8 l 15.6,-13.2 c -10.4,-0.8 -17.6,-0.8 -23.2,-0.8 -39.2,0 -66,7.2 -87.6,23.2 -21.6,16 -31.2,34.4 -31.2,59.6 0,6.4 0.8,10.4 3.2,20 l 30,-10 c -3.6,-12.8 -4.4,-18.8 -4.4,-27.6 0,-22 9.2,-38 25.2,-45.2 10,-4 19.6,-5.2 44,-5.2 -6,19.6 -6.4,21.6 -20,74.8 l -2.8,11.6 -14.4,15.2 10.4,0.8 c -19.2,74.4 -28,85.2 -70.8,85.2 -6.4,0 -11.2,0 -21.2,-0.8 l -18.8,26 c 8.8,1.2 12.4,1.6 19.6,1.6 12.8,0 22.8,-1.2 30.8,-4 12.4,-3.6 32.4,-19.6 53.2,-41.2 21.2,-22 22.4,-24.4 35.6,-66 49.6,-3.2 64,-4 86.4,-4.4 -2,8.4 -3.6,14 -4,16.4 l -9.2,34 c -14,56 -14,56 -14,61.2 0,4.4 4,8.4 8.8,8.4 2.8,0 6.8,-0.8 11.2,-2 10.4,-2.8 16.8,-4 60.4,-12 l 7.2,-10 c -20.8,2 -27.6,2.4 -38,2.4 -8,0 -12.8,-4 -12.8,-10.8 0,-12.4 0,-12.4 25.6,-112 25.6,-89.2 25.6,-89.2 30.4,-96.8 6,-9.6 12.8,-13.6 24,-13.6 8,0 12.4,0.8 21.2,4 l 13.6,-22 c -7.2,-2.4 -10.4,-2.8 -17.6,-2.8 -5.2,0 -9.2,0.4 -13.2,1.6 -10,3.2 -30.4,19.2 -47.6,37.2 -16,17.2 -21.6,27.6 -28.4,52.4 l -10.8,38.8 c -0.4,1.2 -1.6,5.6 -3.6,12.4 z"
         style="font-style:normal;font-variant:normal;font-weight:normal;font-stretch:normal;font-family:Z003;-inkscape-font-specification:Z003;fill:#119da4;fill-opacity:1;stroke:none;stroke-opacity:1"
         id="path2834" />
    </g>
    <path
       style="fill:#119da4;fill-opacity:1;stroke:none;stroke-width:1px;stroke-linecap:butt;stroke-linejoin:miter;stroke-opacity:1"
       d="M 100,300 300,100 500,190 510,230 300,140 90,350 Z"
       id="path30"
       sodipodi:nodetypes="ccccccc" />
  </g>
  <g
     inkscape:groupmode="layer"
     id="layer2"
     inkscape:label="hidden"
     style="display:none">
    <text
       xml:space="preserve"
       id="text2826"
       style="font-style:normal;font-weight:normal;font-size:400px;line-height:1.25;font-family:sans-serif;white-space:pre;shape-inside:url(#rect2828);fill:#119da4;fill-opacity:1;stroke:none;stroke-opacity:1;"
       transform="translate(11.8,8.5552124)"><tspan
         x="100"
         y="493.90625"><tspan
           style="font-style:normal;font-variant:normal;font-weight:normal;font-stretch:normal;font-family:Z003;-inkscape-font-specification:Z003;fill:#119da4;fill-opacity:1;stroke:none;stroke-opacity:1">H</tspan></tspan></text>
  </g>
</svg>
