<?xml version="1.0" standalone="no"?>
<!DOCTYPE svg PUBLIC "-//W3C//DTD SVG 20010904//EN"
 "http://www.w3.org/TR/2001/REC-SVG-20010904/DTD/svg10.dtd">
<svg version="1.0" xmlns="http://www.w3.org/2000/svg"
 width="153.000000pt" height="153.000000pt" viewBox="0 0 153.000000 153.000000"
 preserveAspectRatio="xMidYMid meet">
<metadata>
Created by potrace 1.16, written by Peter Selinger 2001-2019
</metadata>
<g transform="translate(0.000000,153.000000) scale(0.100000,-0.100000)"
fill="#000000" stroke="none">
<path d="M606 1288 c-18 -28 -569 -985 -585 -1015 l-12 -23 751 0 c412 0 750
3 750 8 0 13 -466 816 -476 819 -5 2 -22 -21 -38 -50 -17 -28 -46 -80 -66
-115 l-37 -63 -132 231 c-73 126 -135 230 -137 230 -2 0 -10 -10 -18 -22z
m137 -302 l115 -198 -125 -217 c-68 -119 -131 -226 -139 -238 -14 -23 -17 -23
-245 -23 -195 0 -230 2 -226 14 5 13 431 754 479 834 11 18 22 32 23 30 2 -2
55 -93 118 -202z m653 -648 l15 -28 -104 0 -103 0 -138 240 -137 239 52 90 52
90 175 -302 c95 -166 180 -314 188 -329z m-380 175 l114 -198 -231 -3 c-128
-1 -234 0 -237 2 -2 3 33 69 78 148 125 216 152 260 157 254 3 -3 57 -94 119
-203z"/>
</g>
</svg>
